<mxfile host="drawio-plugin" modified="2022-10-22T19:11:21.396Z" agent="5.0 (Windows NT 6.2; Win64; x64) AppleWebKit/537.36 (KHTML, like Gecko) Chrome/89.0.4389.114 Safari/537.36" etag="MdkfzPysLhXtZpjHhTq7" version="15.5.4" type="embed" pages="4"><diagram name="overview" id="5f0bae14-7c28-e335-631c-24af17079c00"><mxGraphModel dx="922" dy="735" grid="1" gridSize="10" guides="1" tooltips="1" connect="1" arrows="1" fold="1" page="1" pageScale="1" pageWidth="1100" pageHeight="850" background="none" math="0" shadow="0"><root><mxCell id="0"/><mxCell id="1" parent="0"/><mxCell id="39150e848f15840c-1" value="phones model" style="verticalAlign=top;align=left;spacingTop=8;spacingLeft=2;spacingRight=12;shape=cube;size=10;direction=south;fontStyle=4;html=1;rounded=0;shadow=0;comic=0;labelBackgroundColor=none;strokeWidth=1;fontFamily=Verdana;fontSize=12" parent="1" vertex="1"><mxGeometry x="120" y="70" width="330" height="220" as="geometry"/></mxCell><mxCell id="39150e848f15840c-2" value="user view&amp;nbsp;" style="verticalAlign=top;align=left;spacingTop=8;spacingLeft=2;spacingRight=12;shape=cube;size=10;direction=south;fontStyle=4;html=1;rounded=0;shadow=0;comic=0;labelBackgroundColor=none;strokeWidth=1;fontFamily=Verdana;fontSize=12" parent="1" vertex="1"><mxGeometry x="530" y="70" width="330" height="220" as="geometry"/></mxCell><mxCell id="39150e848f15840c-3" value="core api controller" style="verticalAlign=top;align=left;spacingTop=8;spacingLeft=2;spacingRight=12;shape=cube;size=10;direction=south;fontStyle=4;html=1;rounded=0;shadow=0;comic=0;labelBackgroundColor=none;strokeWidth=1;fontFamily=Verdana;fontSize=12" parent="1" vertex="1"><mxGeometry x="370" y="410" width="260" height="150" as="geometry"/></mxCell><mxCell id="39150e848f15840c-4" value="phones table&amp;nbsp;" style="html=1;rounded=0;shadow=0;comic=0;labelBackgroundColor=none;strokeWidth=1;fontFamily=Verdana;fontSize=12;align=center;" parent="1" vertex="1"><mxGeometry x="160" y="140" width="110" height="50" as="geometry"/></mxCell><mxCell id="39150e848f15840c-5" value="Module" style="shape=component;align=left;spacingLeft=36;rounded=0;shadow=0;comic=0;labelBackgroundColor=none;strokeWidth=1;fontFamily=Verdana;fontSize=12;html=1;" parent="1" vertex="1"><mxGeometry x="310" y="135" width="120" height="60" as="geometry"/></mxCell><mxCell id="39150e848f15840c-6" value="" style="ellipse;whiteSpace=wrap;html=1;rounded=0;shadow=0;comic=0;labelBackgroundColor=none;strokeWidth=1;fontFamily=Verdana;fontSize=12;align=center;" parent="1" vertex="1"><mxGeometry x="360" y="230" width="20" height="20" as="geometry"/></mxCell><mxCell id="T3z9Gx3ZVNxIIN7JmgHu-3" style="edgeStyle=orthogonalEdgeStyle;rounded=0;orthogonalLoop=1;jettySize=auto;html=1;exitX=0.75;exitY=1;exitDx=0;exitDy=0;entryX=0;entryY=0.5;entryDx=0;entryDy=0;" parent="1" source="39150e848f15840c-7" target="T3z9Gx3ZVNxIIN7JmgHu-1" edge="1"><mxGeometry relative="1" as="geometry"/></mxCell><mxCell id="39150e848f15840c-7" value="" style="shape=component;align=left;spacingLeft=36;rounded=0;shadow=0;comic=0;labelBackgroundColor=none;strokeWidth=1;fontFamily=Verdana;fontSize=12;html=1;" parent="1" vertex="1"><mxGeometry x="560" y="135" width="120" height="60" as="geometry"/></mxCell><mxCell id="39150e848f15840c-8" value="chrage by &lt;br&gt;transfere" style="html=1;rounded=0;shadow=0;comic=0;labelBackgroundColor=none;strokeWidth=1;fontFamily=Verdana;fontSize=12;align=center;" parent="1" vertex="1"><mxGeometry x="720" y="140" width="110" height="50" as="geometry"/></mxCell><mxCell id="39150e848f15840c-9" value="" style="ellipse;whiteSpace=wrap;html=1;rounded=0;shadow=0;comic=0;labelBackgroundColor=none;strokeWidth=1;fontFamily=Verdana;fontSize=12;align=center;" parent="1" vertex="1"><mxGeometry x="620" y="230" width="20" height="20" as="geometry"/></mxCell><mxCell id="39150e848f15840c-11" style="edgeStyle=none;rounded=0;html=1;dashed=1;labelBackgroundColor=none;startArrow=none;startFill=0;startSize=8;endArrow=open;endFill=0;endSize=16;fontFamily=Verdana;fontSize=12;" parent="1" target="39150e848f15840c-6" edge="1"><mxGeometry relative="1" as="geometry"><mxPoint x="484.4000000000001" y="460" as="sourcePoint"/></mxGeometry></mxCell><mxCell id="39150e848f15840c-12" style="edgeStyle=none;rounded=0;html=1;dashed=1;labelBackgroundColor=none;startArrow=none;startFill=0;startSize=8;endArrow=open;endFill=0;endSize=16;fontFamily=Verdana;fontSize=12;" parent="1" source="39150e848f15840c-3" target="39150e848f15840c-9" edge="1"><mxGeometry relative="1" as="geometry"/></mxCell><mxCell id="39150e848f15840c-13" style="edgeStyle=elbowEdgeStyle;rounded=0;html=1;labelBackgroundColor=none;startArrow=none;startFill=0;startSize=8;endArrow=none;endFill=0;endSize=16;fontFamily=Verdana;fontSize=12;" parent="1" source="39150e848f15840c-9" target="39150e848f15840c-7" edge="1"><mxGeometry relative="1" as="geometry"/></mxCell><mxCell id="39150e848f15840c-14" style="edgeStyle=elbowEdgeStyle;rounded=0;html=1;labelBackgroundColor=none;startArrow=none;startFill=0;startSize=8;endArrow=none;endFill=0;endSize=16;fontFamily=Verdana;fontSize=12;" parent="1" source="39150e848f15840c-6" target="39150e848f15840c-5" edge="1"><mxGeometry relative="1" as="geometry"/></mxCell><mxCell id="39150e848f15840c-15" style="edgeStyle=orthogonalEdgeStyle;rounded=0;html=1;labelBackgroundColor=none;startArrow=none;startFill=0;startSize=8;endArrow=open;endFill=0;endSize=16;fontFamily=Verdana;fontSize=12;dashed=1;" parent="1" source="39150e848f15840c-5" target="39150e848f15840c-4" edge="1"><mxGeometry relative="1" as="geometry"><Array as="points"><mxPoint x="350" y="220"/><mxPoint x="215" y="220"/></Array></mxGeometry></mxCell><mxCell id="39150e848f15840c-16" style="edgeStyle=orthogonalEdgeStyle;rounded=0;html=1;dashed=1;labelBackgroundColor=none;startArrow=none;startFill=0;startSize=8;endArrow=open;endFill=0;endSize=16;fontFamily=Verdana;fontSize=12;" parent="1" source="39150e848f15840c-7" target="39150e848f15840c-8" edge="1"><mxGeometry relative="1" as="geometry"/></mxCell><mxCell id="39150e848f15840c-17" style="edgeStyle=orthogonalEdgeStyle;rounded=0;html=1;labelBackgroundColor=none;startArrow=none;startFill=0;startSize=8;endArrow=none;endFill=0;endSize=16;fontFamily=Verdana;fontSize=12;" parent="1" source="39150e848f15840c-3" target="39150e848f15840c-2" edge="1"><mxGeometry relative="1" as="geometry"><Array as="points"><mxPoint x="695" y="485"/></Array></mxGeometry></mxCell><mxCell id="39150e848f15840c-18" style="edgeStyle=orthogonalEdgeStyle;rounded=0;html=1;labelBackgroundColor=none;startArrow=none;startFill=0;startSize=8;endArrow=none;endFill=0;endSize=16;fontFamily=Verdana;fontSize=12;" parent="1" source="39150e848f15840c-3" target="39150e848f15840c-1" edge="1"><mxGeometry relative="1" as="geometry"><Array as="points"><mxPoint x="285" y="485"/></Array></mxGeometry></mxCell><mxCell id="aQjoXTz78M6BusPIuLrC-1" value="&amp;nbsp;manage the charge process and phones with their conditions&amp;nbsp;" style="text;html=1;strokeColor=none;fillColor=none;align=center;verticalAlign=middle;whiteSpace=wrap;rounded=0;" parent="1" vertex="1"><mxGeometry x="380" y="460" width="240" height="80" as="geometry"/></mxCell><mxCell id="T3z9Gx3ZVNxIIN7JmgHu-1" value="chrage by &lt;br&gt;card" style="html=1;rounded=0;shadow=0;comic=0;labelBackgroundColor=none;strokeWidth=1;fontFamily=Verdana;fontSize=12;align=center;" parent="1" vertex="1"><mxGeometry x="720" y="200" width="110" height="50" as="geometry"/></mxCell></root></mxGraphModel></diagram><diagram id="EF_LZFoPeFI5Ngoee_ZV" name=" tables"><mxGraphModel dx="922" dy="735" grid="1" gridSize="10" guides="1" tooltips="1" connect="1" arrows="1" fold="1" page="1" pageScale="1" pageWidth="850" pageHeight="1100" math="0" shadow="0"><root><mxCell id="nzLGvsEe7ojmA1JI-rmk-0"/><mxCell id="nzLGvsEe7ojmA1JI-rmk-1" parent="nzLGvsEe7ojmA1JI-rmk-0"/><mxCell id="nzLGvsEe7ojmA1JI-rmk-2" value="Authcore - phones table" style="shape=table;startSize=30;container=1;collapsible=0;childLayout=tableLayout;fontStyle=1;align=center;pointerEvents=1;" parent="nzLGvsEe7ojmA1JI-rmk-1" vertex="1"><mxGeometry x="180" y="180" width="1240" height="373" as="geometry"/></mxCell><mxCell id="nzLGvsEe7ojmA1JI-rmk-3" value="" style="shape=partialRectangle;html=1;whiteSpace=wrap;collapsible=0;dropTarget=0;pointerEvents=0;fillColor=none;top=0;left=0;bottom=0;right=0;points=[[0,0.5],[1,0.5]];portConstraint=eastwest;" parent="nzLGvsEe7ojmA1JI-rmk-2" vertex="1"><mxGeometry y="30" width="1240" height="30" as="geometry"/></mxCell><mxCell id="nzLGvsEe7ojmA1JI-rmk-24" value="id" style="shape=partialRectangle;html=1;whiteSpace=wrap;connectable=0;fillColor=none;top=0;left=0;bottom=0;right=0;overflow=hidden;pointerEvents=1;" parent="nzLGvsEe7ojmA1JI-rmk-3" vertex="1"><mxGeometry width="146" height="30" as="geometry"><mxRectangle width="146" height="30" as="alternateBounds"/></mxGeometry></mxCell><mxCell id="nzLGvsEe7ojmA1JI-rmk-21" value="phone" style="shape=partialRectangle;html=1;whiteSpace=wrap;connectable=0;fillColor=none;top=0;left=0;bottom=0;right=0;overflow=hidden;pointerEvents=1;" parent="nzLGvsEe7ojmA1JI-rmk-3" vertex="1"><mxGeometry x="146" width="145" height="30" as="geometry"><mxRectangle width="145" height="30" as="alternateBounds"/></mxGeometry></mxCell><mxCell id="nzLGvsEe7ojmA1JI-rmk-18" value="provider" style="shape=partialRectangle;html=1;whiteSpace=wrap;connectable=0;fillColor=none;top=0;left=0;bottom=0;right=0;overflow=hidden;pointerEvents=1;" parent="nzLGvsEe7ojmA1JI-rmk-3" vertex="1"><mxGeometry x="291" width="147" height="30" as="geometry"><mxRectangle width="147" height="30" as="alternateBounds"/></mxGeometry></mxCell><mxCell id="nzLGvsEe7ojmA1JI-rmk-15" value="balance" style="shape=partialRectangle;html=1;whiteSpace=wrap;connectable=0;fillColor=none;top=0;left=0;bottom=0;right=0;overflow=hidden;pointerEvents=1;" parent="nzLGvsEe7ojmA1JI-rmk-3" vertex="1"><mxGeometry x="438" width="145" height="30" as="geometry"><mxRectangle width="145" height="30" as="alternateBounds"/></mxGeometry></mxCell><mxCell id="nzLGvsEe7ojmA1JI-rmk-4" value="status&amp;nbsp;" style="shape=partialRectangle;html=1;whiteSpace=wrap;connectable=0;fillColor=none;top=0;left=0;bottom=0;right=0;overflow=hidden;pointerEvents=1;" parent="nzLGvsEe7ojmA1JI-rmk-3" vertex="1"><mxGeometry x="583" width="146" height="30" as="geometry"><mxRectangle width="146" height="30" as="alternateBounds"/></mxGeometry></mxCell><mxCell id="nzLGvsEe7ojmA1JI-rmk-5" value="set__dayli_limit" style="shape=partialRectangle;html=1;whiteSpace=wrap;connectable=0;fillColor=none;top=0;left=0;bottom=0;right=0;overflow=hidden;pointerEvents=1;" parent="nzLGvsEe7ojmA1JI-rmk-3" vertex="1"><mxGeometry x="729" width="146" height="30" as="geometry"><mxRectangle width="146" height="30" as="alternateBounds"/></mxGeometry></mxCell><mxCell id="nzLGvsEe7ojmA1JI-rmk-6" value="api_token" style="shape=partialRectangle;html=1;whiteSpace=wrap;connectable=0;fillColor=none;top=0;left=0;bottom=0;right=0;overflow=hidden;pointerEvents=1;" parent="nzLGvsEe7ojmA1JI-rmk-3" vertex="1"><mxGeometry x="875" width="183" height="30" as="geometry"><mxRectangle width="183" height="30" as="alternateBounds"/></mxGeometry></mxCell><mxCell id="nzLGvsEe7ojmA1JI-rmk-30" value="charge_type" style="shape=partialRectangle;html=1;whiteSpace=wrap;connectable=0;fillColor=none;top=0;left=0;bottom=0;right=0;overflow=hidden;pointerEvents=1;" parent="nzLGvsEe7ojmA1JI-rmk-3" vertex="1"><mxGeometry x="1058" width="182" height="30" as="geometry"><mxRectangle width="182" height="30" as="alternateBounds"/></mxGeometry></mxCell><mxCell id="nzLGvsEe7ojmA1JI-rmk-7" value="" style="shape=partialRectangle;html=1;whiteSpace=wrap;collapsible=0;dropTarget=0;pointerEvents=0;fillColor=none;top=0;left=0;bottom=0;right=0;points=[[0,0.5],[1,0.5]];portConstraint=eastwest;" parent="nzLGvsEe7ojmA1JI-rmk-2" vertex="1"><mxGeometry y="60" width="1240" height="156" as="geometry"/></mxCell><mxCell id="nzLGvsEe7ojmA1JI-rmk-25" style="shape=partialRectangle;html=1;whiteSpace=wrap;connectable=0;fillColor=none;top=0;left=0;bottom=0;right=0;overflow=hidden;pointerEvents=1;" parent="nzLGvsEe7ojmA1JI-rmk-7" vertex="1"><mxGeometry width="146" height="156" as="geometry"><mxRectangle width="146" height="156" as="alternateBounds"/></mxGeometry></mxCell><mxCell id="nzLGvsEe7ojmA1JI-rmk-22" style="shape=partialRectangle;html=1;whiteSpace=wrap;connectable=0;fillColor=none;top=0;left=0;bottom=0;right=0;overflow=hidden;pointerEvents=1;" parent="nzLGvsEe7ojmA1JI-rmk-7" vertex="1"><mxGeometry x="146" width="145" height="156" as="geometry"><mxRectangle width="145" height="156" as="alternateBounds"/></mxGeometry></mxCell><mxCell id="nzLGvsEe7ojmA1JI-rmk-19" style="shape=partialRectangle;html=1;whiteSpace=wrap;connectable=0;fillColor=none;top=0;left=0;bottom=0;right=0;overflow=hidden;pointerEvents=1;" parent="nzLGvsEe7ojmA1JI-rmk-7" vertex="1"><mxGeometry x="291" width="147" height="156" as="geometry"><mxRectangle width="147" height="156" as="alternateBounds"/></mxGeometry></mxCell><mxCell id="nzLGvsEe7ojmA1JI-rmk-16" style="shape=partialRectangle;html=1;whiteSpace=wrap;connectable=0;fillColor=none;top=0;left=0;bottom=0;right=0;overflow=hidden;pointerEvents=1;" parent="nzLGvsEe7ojmA1JI-rmk-7" vertex="1"><mxGeometry x="438" width="145" height="156" as="geometry"><mxRectangle width="145" height="156" as="alternateBounds"/></mxGeometry></mxCell><mxCell id="nzLGvsEe7ojmA1JI-rmk-8" value="" style="shape=partialRectangle;html=1;whiteSpace=wrap;connectable=0;fillColor=none;top=0;left=0;bottom=0;right=0;overflow=hidden;pointerEvents=1;" parent="nzLGvsEe7ojmA1JI-rmk-7" vertex="1"><mxGeometry x="583" width="146" height="156" as="geometry"><mxRectangle width="146" height="156" as="alternateBounds"/></mxGeometry></mxCell><mxCell id="nzLGvsEe7ojmA1JI-rmk-9" value="" style="shape=partialRectangle;html=1;whiteSpace=wrap;connectable=0;fillColor=none;top=0;left=0;bottom=0;right=0;overflow=hidden;pointerEvents=1;" parent="nzLGvsEe7ojmA1JI-rmk-7" vertex="1"><mxGeometry x="729" width="146" height="156" as="geometry"><mxRectangle width="146" height="156" as="alternateBounds"/></mxGeometry></mxCell><mxCell id="nzLGvsEe7ojmA1JI-rmk-10" value="" style="shape=partialRectangle;html=1;whiteSpace=wrap;connectable=0;fillColor=none;top=0;left=0;bottom=0;right=0;overflow=hidden;pointerEvents=1;" parent="nzLGvsEe7ojmA1JI-rmk-7" vertex="1"><mxGeometry x="875" width="183" height="156" as="geometry"><mxRectangle width="183" height="156" as="alternateBounds"/></mxGeometry></mxCell><mxCell id="nzLGvsEe7ojmA1JI-rmk-31" style="shape=partialRectangle;html=1;whiteSpace=wrap;connectable=0;fillColor=none;top=0;left=0;bottom=0;right=0;overflow=hidden;pointerEvents=1;" parent="nzLGvsEe7ojmA1JI-rmk-7" vertex="1"><mxGeometry x="1058" width="182" height="156" as="geometry"><mxRectangle width="182" height="156" as="alternateBounds"/></mxGeometry></mxCell><mxCell id="nzLGvsEe7ojmA1JI-rmk-11" value="" style="shape=partialRectangle;html=1;whiteSpace=wrap;collapsible=0;dropTarget=0;pointerEvents=0;fillColor=none;top=0;left=0;bottom=0;right=0;points=[[0,0.5],[1,0.5]];portConstraint=eastwest;" parent="nzLGvsEe7ojmA1JI-rmk-2" vertex="1"><mxGeometry y="216" width="1240" height="157" as="geometry"/></mxCell><mxCell id="nzLGvsEe7ojmA1JI-rmk-26" style="shape=partialRectangle;html=1;whiteSpace=wrap;connectable=0;fillColor=none;top=0;left=0;bottom=0;right=0;overflow=hidden;pointerEvents=1;" parent="nzLGvsEe7ojmA1JI-rmk-11" vertex="1"><mxGeometry width="146" height="157" as="geometry"><mxRectangle width="146" height="157" as="alternateBounds"/></mxGeometry></mxCell><mxCell id="nzLGvsEe7ojmA1JI-rmk-23" style="shape=partialRectangle;html=1;whiteSpace=wrap;connectable=0;fillColor=none;top=0;left=0;bottom=0;right=0;overflow=hidden;pointerEvents=1;" parent="nzLGvsEe7ojmA1JI-rmk-11" vertex="1"><mxGeometry x="146" width="145" height="157" as="geometry"><mxRectangle width="145" height="157" as="alternateBounds"/></mxGeometry></mxCell><mxCell id="nzLGvsEe7ojmA1JI-rmk-20" style="shape=partialRectangle;html=1;whiteSpace=wrap;connectable=0;fillColor=none;top=0;left=0;bottom=0;right=0;overflow=hidden;pointerEvents=1;" parent="nzLGvsEe7ojmA1JI-rmk-11" vertex="1"><mxGeometry x="291" width="147" height="157" as="geometry"><mxRectangle width="147" height="157" as="alternateBounds"/></mxGeometry></mxCell><mxCell id="nzLGvsEe7ojmA1JI-rmk-17" style="shape=partialRectangle;html=1;whiteSpace=wrap;connectable=0;fillColor=none;top=0;left=0;bottom=0;right=0;overflow=hidden;pointerEvents=1;" parent="nzLGvsEe7ojmA1JI-rmk-11" vertex="1"><mxGeometry x="438" width="145" height="157" as="geometry"><mxRectangle width="145" height="157" as="alternateBounds"/></mxGeometry></mxCell><mxCell id="nzLGvsEe7ojmA1JI-rmk-12" value="" style="shape=partialRectangle;html=1;whiteSpace=wrap;connectable=0;fillColor=none;top=0;left=0;bottom=0;right=0;overflow=hidden;pointerEvents=1;" parent="nzLGvsEe7ojmA1JI-rmk-11" vertex="1"><mxGeometry x="583" width="146" height="157" as="geometry"><mxRectangle width="146" height="157" as="alternateBounds"/></mxGeometry></mxCell><mxCell id="nzLGvsEe7ojmA1JI-rmk-13" value="" style="shape=partialRectangle;html=1;whiteSpace=wrap;connectable=0;fillColor=none;top=0;left=0;bottom=0;right=0;overflow=hidden;pointerEvents=1;" parent="nzLGvsEe7ojmA1JI-rmk-11" vertex="1"><mxGeometry x="729" width="146" height="157" as="geometry"><mxRectangle width="146" height="157" as="alternateBounds"/></mxGeometry></mxCell><mxCell id="nzLGvsEe7ojmA1JI-rmk-14" value="" style="shape=partialRectangle;html=1;whiteSpace=wrap;connectable=0;fillColor=none;top=0;left=0;bottom=0;right=0;overflow=hidden;pointerEvents=1;" parent="nzLGvsEe7ojmA1JI-rmk-11" vertex="1"><mxGeometry x="875" width="183" height="157" as="geometry"><mxRectangle width="183" height="157" as="alternateBounds"/></mxGeometry></mxCell><mxCell id="nzLGvsEe7ojmA1JI-rmk-32" style="shape=partialRectangle;html=1;whiteSpace=wrap;connectable=0;fillColor=none;top=0;left=0;bottom=0;right=0;overflow=hidden;pointerEvents=1;" parent="nzLGvsEe7ojmA1JI-rmk-11" vertex="1"><mxGeometry x="1058" width="182" height="157" as="geometry"><mxRectangle width="182" height="157" as="alternateBounds"/></mxGeometry></mxCell><mxCell id="vJBzb6Nn0SSdUNUUH3a2-0" value="transaction log" style="shape=table;childLayout=tableLayout;rowLines=0;columnLines=0;startSize=40;collapsible=0;recursiveResize=0;expand=0;pointerEvents=0;" parent="nzLGvsEe7ojmA1JI-rmk-1" vertex="1"><mxGeometry x="180" y="580" width="1240" height="280" as="geometry"/></mxCell><mxCell id="vJBzb6Nn0SSdUNUUH3a2-1" value="" style="swimlane;horizontal=0;points=[[0,0.5],[1,0.5]];portConstraint=eastwest;startSize=40;collapsible=0;recursiveResize=0;expand=0;pointerEvents=0;" parent="vJBzb6Nn0SSdUNUUH3a2-0" vertex="1"><mxGeometry y="40" width="1240" height="120" as="geometry"/></mxCell><mxCell id="vJBzb6Nn0SSdUNUUH3a2-2" value="id" style="swimlane;connectable=0;startSize=40;collapsible=0;recursiveResize=0;expand=0;pointerEvents=0;" parent="vJBzb6Nn0SSdUNUUH3a2-1" vertex="1"><mxGeometry x="40" width="120" height="120" as="geometry"><mxRectangle width="120" height="120" as="alternateBounds"/></mxGeometry></mxCell><mxCell id="vJBzb6Nn0SSdUNUUH3a2-3" value="date" style="swimlane;connectable=0;startSize=40;collapsible=0;recursiveResize=0;expand=0;pointerEvents=0;" parent="vJBzb6Nn0SSdUNUUH3a2-1" vertex="1"><mxGeometry x="160" width="120" height="120" as="geometry"><mxRectangle width="120" height="120" as="alternateBounds"/></mxGeometry></mxCell><mxCell id="vJBzb6Nn0SSdUNUUH3a2-4" value="amount" style="swimlane;connectable=0;startSize=40;collapsible=0;recursiveResize=0;expand=0;pointerEvents=0;" parent="vJBzb6Nn0SSdUNUUH3a2-1" vertex="1"><mxGeometry x="280" width="120" height="120" as="geometry"><mxRectangle width="120" height="120" as="alternateBounds"/></mxGeometry></mxCell><mxCell id="vJBzb6Nn0SSdUNUUH3a2-5" value="user_id" style="swimlane;connectable=0;startSize=40;collapsible=0;recursiveResize=0;expand=0;pointerEvents=0;" parent="vJBzb6Nn0SSdUNUUH3a2-1" vertex="1"><mxGeometry x="400" width="120" height="120" as="geometry"><mxRectangle width="120" height="120" as="alternateBounds"/></mxGeometry></mxCell><mxCell id="vJBzb6Nn0SSdUNUUH3a2-6" value="user_number" style="swimlane;connectable=0;startSize=40;collapsible=0;recursiveResize=0;expand=0;pointerEvents=0;" parent="vJBzb6Nn0SSdUNUUH3a2-1" vertex="1"><mxGeometry x="520" width="120" height="120" as="geometry"><mxRectangle width="120" height="120" as="alternateBounds"/></mxGeometry></mxCell><mxCell id="vJBzb6Nn0SSdUNUUH3a2-7" value="core_phone" style="swimlane;connectable=0;startSize=40;collapsible=0;recursiveResize=0;expand=0;pointerEvents=0;" parent="vJBzb6Nn0SSdUNUUH3a2-1" vertex="1"><mxGeometry x="640" width="120" height="120" as="geometry"><mxRectangle width="120" height="120" as="alternateBounds"/></mxGeometry></mxCell><mxCell id="vJBzb6Nn0SSdUNUUH3a2-8" value="core_phone_balance" style="swimlane;connectable=0;startSize=40;collapsible=0;recursiveResize=0;expand=0;pointerEvents=0;" parent="vJBzb6Nn0SSdUNUUH3a2-1" vertex="1"><mxGeometry x="760" width="140" height="120" as="geometry"><mxRectangle width="140" height="120" as="alternateBounds"/></mxGeometry></mxCell><mxCell id="vJBzb6Nn0SSdUNUUH3a2-9" value="status" style="swimlane;connectable=0;startSize=40;collapsible=0;recursiveResize=0;expand=0;pointerEvents=0;" parent="vJBzb6Nn0SSdUNUUH3a2-1" vertex="1"><mxGeometry x="900" width="100" height="120" as="geometry"><mxRectangle width="100" height="120" as="alternateBounds"/></mxGeometry></mxCell><mxCell id="vJBzb6Nn0SSdUNUUH3a2-10" value="" style="swimlane;connectable=0;startSize=40;collapsible=0;recursiveResize=0;expand=0;pointerEvents=0;" parent="vJBzb6Nn0SSdUNUUH3a2-1" vertex="1"><mxGeometry x="1000" width="120" height="120" as="geometry"><mxRectangle width="120" height="120" as="alternateBounds"/></mxGeometry></mxCell><mxCell id="vJBzb6Nn0SSdUNUUH3a2-11" value="" style="swimlane;connectable=0;startSize=40;collapsible=0;recursiveResize=0;expand=0;pointerEvents=0;" parent="vJBzb6Nn0SSdUNUUH3a2-1" vertex="1"><mxGeometry x="1120" width="120" height="120" as="geometry"><mxRectangle width="120" height="120" as="alternateBounds"/></mxGeometry></mxCell><mxCell id="vJBzb6Nn0SSdUNUUH3a2-12" value="" style="swimlane;horizontal=0;points=[[0,0.5],[1,0.5]];portConstraint=eastwest;startSize=40;collapsible=0;recursiveResize=0;expand=0;pointerEvents=0;" parent="vJBzb6Nn0SSdUNUUH3a2-0" vertex="1"><mxGeometry y="160" width="1240" height="120" as="geometry"/></mxCell><mxCell id="vJBzb6Nn0SSdUNUUH3a2-13" value="" style="swimlane;connectable=0;startSize=0;collapsible=0;recursiveResize=0;expand=0;pointerEvents=0;" parent="vJBzb6Nn0SSdUNUUH3a2-12" vertex="1"><mxGeometry x="40" width="120" height="120" as="geometry"><mxRectangle width="120" height="120" as="alternateBounds"/></mxGeometry></mxCell><mxCell id="vJBzb6Nn0SSdUNUUH3a2-14" value="" style="swimlane;connectable=0;startSize=0;collapsible=0;recursiveResize=0;expand=0;pointerEvents=0;" parent="vJBzb6Nn0SSdUNUUH3a2-12" vertex="1"><mxGeometry x="160" width="120" height="120" as="geometry"><mxRectangle width="120" height="120" as="alternateBounds"/></mxGeometry></mxCell><mxCell id="vJBzb6Nn0SSdUNUUH3a2-15" value="" style="swimlane;connectable=0;startSize=0;collapsible=0;recursiveResize=0;expand=0;pointerEvents=0;" parent="vJBzb6Nn0SSdUNUUH3a2-12" vertex="1"><mxGeometry x="280" width="120" height="120" as="geometry"><mxRectangle width="120" height="120" as="alternateBounds"/></mxGeometry></mxCell><mxCell id="vJBzb6Nn0SSdUNUUH3a2-16" value="" style="swimlane;connectable=0;startSize=0;collapsible=0;recursiveResize=0;expand=0;pointerEvents=0;" parent="vJBzb6Nn0SSdUNUUH3a2-12" vertex="1"><mxGeometry x="400" width="120" height="120" as="geometry"><mxRectangle width="120" height="120" as="alternateBounds"/></mxGeometry></mxCell><mxCell id="vJBzb6Nn0SSdUNUUH3a2-17" value="" style="swimlane;connectable=0;startSize=0;collapsible=0;recursiveResize=0;expand=0;pointerEvents=0;" parent="vJBzb6Nn0SSdUNUUH3a2-12" vertex="1"><mxGeometry x="520" width="120" height="120" as="geometry"><mxRectangle width="120" height="120" as="alternateBounds"/></mxGeometry></mxCell><mxCell id="vJBzb6Nn0SSdUNUUH3a2-18" value="" style="swimlane;connectable=0;startSize=0;collapsible=0;recursiveResize=0;expand=0;pointerEvents=0;" parent="vJBzb6Nn0SSdUNUUH3a2-12" vertex="1"><mxGeometry x="640" width="120" height="120" as="geometry"><mxRectangle width="120" height="120" as="alternateBounds"/></mxGeometry></mxCell><mxCell id="vJBzb6Nn0SSdUNUUH3a2-19" value="" style="swimlane;connectable=0;startSize=0;collapsible=0;recursiveResize=0;expand=0;pointerEvents=0;" parent="vJBzb6Nn0SSdUNUUH3a2-12" vertex="1"><mxGeometry x="760" width="140" height="120" as="geometry"><mxRectangle width="140" height="120" as="alternateBounds"/></mxGeometry></mxCell><mxCell id="vJBzb6Nn0SSdUNUUH3a2-20" value="" style="swimlane;connectable=0;startSize=0;collapsible=0;recursiveResize=0;expand=0;pointerEvents=0;" parent="vJBzb6Nn0SSdUNUUH3a2-12" vertex="1"><mxGeometry x="900" width="100" height="120" as="geometry"><mxRectangle width="100" height="120" as="alternateBounds"/></mxGeometry></mxCell><mxCell id="vJBzb6Nn0SSdUNUUH3a2-21" value="" style="swimlane;connectable=0;startSize=0;collapsible=0;recursiveResize=0;expand=0;pointerEvents=0;" parent="vJBzb6Nn0SSdUNUUH3a2-12" vertex="1"><mxGeometry x="1000" width="120" height="120" as="geometry"><mxRectangle width="120" height="120" as="alternateBounds"/></mxGeometry></mxCell><mxCell id="vJBzb6Nn0SSdUNUUH3a2-22" value="" style="swimlane;connectable=0;startSize=0;collapsible=0;recursiveResize=0;expand=0;pointerEvents=0;" parent="vJBzb6Nn0SSdUNUUH3a2-12" vertex="1"><mxGeometry x="1120" width="120" height="120" as="geometry"><mxRectangle width="120" height="120" as="alternateBounds"/></mxGeometry></mxCell></root></mxGraphModel></diagram><diagram id="6Lw2Li9Hv4pHwgjgA6-K" name="checkout"><mxGraphModel dx="922" dy="735" grid="1" gridSize="10" guides="1" tooltips="1" connect="1" arrows="1" fold="1" page="1" pageScale="1" pageWidth="850" pageHeight="1100" math="0" shadow="0"><root><mxCell id="k8bE74Q5Vmpq4IxRuI57-0"/><mxCell id="k8bE74Q5Vmpq4IxRuI57-1" parent="k8bE74Q5Vmpq4IxRuI57-0"/><mxCell id="8Ibwj0CYzQewX4a4Tj5T-0" value="" style="image;html=1;image=img/lib/clip_art/people/Suit_Man_Green_128x128.png" parent="k8bE74Q5Vmpq4IxRuI57-1" vertex="1"><mxGeometry x="370" y="40" width="80" height="80" as="geometry"/></mxCell><mxCell id="8Ibwj0CYzQewX4a4Tj5T-3" value="" style="edgeStyle=orthogonalEdgeStyle;rounded=0;orthogonalLoop=1;jettySize=auto;html=1;" parent="k8bE74Q5Vmpq4IxRuI57-1" source="8Ibwj0CYzQewX4a4Tj5T-1" target="8Ibwj0CYzQewX4a4Tj5T-2" edge="1"><mxGeometry relative="1" as="geometry"/></mxCell><mxCell id="8Ibwj0CYzQewX4a4Tj5T-1" value="checkout page" style="text;html=1;align=center;verticalAlign=middle;resizable=0;points=[];autosize=1;strokeColor=none;fillColor=none;" parent="k8bE74Q5Vmpq4IxRuI57-1" vertex="1"><mxGeometry x="365" y="110" width="90" height="20" as="geometry"/></mxCell><mxCell id="8Ibwj0CYzQewX4a4Tj5T-9" value="" style="edgeStyle=orthogonalEdgeStyle;rounded=0;orthogonalLoop=1;jettySize=auto;html=1;" parent="k8bE74Q5Vmpq4IxRuI57-1" source="8Ibwj0CYzQewX4a4Tj5T-2" target="8Ibwj0CYzQewX4a4Tj5T-8" edge="1"><mxGeometry relative="1" as="geometry"/></mxCell><mxCell id="8Ibwj0CYzQewX4a4Tj5T-11" value="" style="edgeStyle=orthogonalEdgeStyle;rounded=0;orthogonalLoop=1;jettySize=auto;html=1;" parent="k8bE74Q5Vmpq4IxRuI57-1" source="8Ibwj0CYzQewX4a4Tj5T-2" target="8Ibwj0CYzQewX4a4Tj5T-10" edge="1"><mxGeometry relative="1" as="geometry"/></mxCell><mxCell id="8Ibwj0CYzQewX4a4Tj5T-2" value="select charge type&amp;nbsp;" style="rhombus;whiteSpace=wrap;html=1;fontFamily=Helvetica;fontSize=12;fontColor=#f0f0f0;align=center;strokeColor=#f0f0f0;fillColor=#2a2a2a;" parent="k8bE74Q5Vmpq4IxRuI57-1" vertex="1"><mxGeometry x="350" y="170" width="120" height="120" as="geometry"/></mxCell><mxCell id="8Ibwj0CYzQewX4a4Tj5T-14" value="" style="edgeStyle=orthogonalEdgeStyle;rounded=0;orthogonalLoop=1;jettySize=auto;html=1;" parent="k8bE74Q5Vmpq4IxRuI57-1" source="8Ibwj0CYzQewX4a4Tj5T-8" target="8Ibwj0CYzQewX4a4Tj5T-13" edge="1"><mxGeometry relative="1" as="geometry"><Array as="points"><mxPoint x="620" y="490"/></Array></mxGeometry></mxCell><mxCell id="8Ibwj0CYzQewX4a4Tj5T-8" value="transfer" style="whiteSpace=wrap;html=1;" parent="k8bE74Q5Vmpq4IxRuI57-1" vertex="1"><mxGeometry x="550" y="200" width="120" height="60" as="geometry"/></mxCell><mxCell id="8Ibwj0CYzQewX4a4Tj5T-15" style="edgeStyle=orthogonalEdgeStyle;rounded=0;orthogonalLoop=1;jettySize=auto;html=1;exitX=0.5;exitY=1;exitDx=0;exitDy=0;entryX=0;entryY=0.5;entryDx=0;entryDy=0;" parent="k8bE74Q5Vmpq4IxRuI57-1" source="8Ibwj0CYzQewX4a4Tj5T-10" target="8Ibwj0CYzQewX4a4Tj5T-13" edge="1"><mxGeometry relative="1" as="geometry"/></mxCell><mxCell id="8Ibwj0CYzQewX4a4Tj5T-10" value="card" style="whiteSpace=wrap;html=1;" parent="k8bE74Q5Vmpq4IxRuI57-1" vertex="1"><mxGeometry x="150" y="200" width="120" height="60" as="geometry"/></mxCell><mxCell id="LxQQXr0ZSpcnUXzLKgWr-0" style="edgeStyle=orthogonalEdgeStyle;rounded=0;orthogonalLoop=1;jettySize=auto;html=1;entryX=0.5;entryY=0;entryDx=0;entryDy=0;" parent="k8bE74Q5Vmpq4IxRuI57-1" source="8Ibwj0CYzQewX4a4Tj5T-13" target="LxQQXr0ZSpcnUXzLKgWr-1" edge="1"><mxGeometry relative="1" as="geometry"><mxPoint x="410" y="590" as="targetPoint"/></mxGeometry></mxCell><mxCell id="8Ibwj0CYzQewX4a4Tj5T-13" value="core&amp;nbsp;&lt;br&gt;transaction verfiy" style="whiteSpace=wrap;html=1;" parent="k8bE74Q5Vmpq4IxRuI57-1" vertex="1"><mxGeometry x="350" y="460" width="120" height="60" as="geometry"/></mxCell><mxCell id="Mk-Ze5R7_nHXyjk9jKOV-1" value="" style="edgeStyle=orthogonalEdgeStyle;rounded=0;orthogonalLoop=1;jettySize=auto;html=1;" parent="k8bE74Q5Vmpq4IxRuI57-1" source="LxQQXr0ZSpcnUXzLKgWr-1" target="Mk-Ze5R7_nHXyjk9jKOV-0" edge="1"><mxGeometry relative="1" as="geometry"/></mxCell><mxCell id="LxQQXr0ZSpcnUXzLKgWr-1" value="log the transaction" style="whiteSpace=wrap;html=1;" parent="k8bE74Q5Vmpq4IxRuI57-1" vertex="1"><mxGeometry x="350" y="570" width="120" height="60" as="geometry"/></mxCell><mxCell id="TFq2gJoqdJba1FpBUaJx-1" value="" style="edgeStyle=orthogonalEdgeStyle;rounded=0;orthogonalLoop=1;jettySize=auto;html=1;" parent="k8bE74Q5Vmpq4IxRuI57-1" source="LxQQXr0ZSpcnUXzLKgWr-2" target="TFq2gJoqdJba1FpBUaJx-0" edge="1"><mxGeometry relative="1" as="geometry"/></mxCell><mxCell id="LxQQXr0ZSpcnUXzLKgWr-2" value="update user balance" style="whiteSpace=wrap;html=1;" parent="k8bE74Q5Vmpq4IxRuI57-1" vertex="1"><mxGeometry x="520" y="770" width="120" height="60" as="geometry"/></mxCell><mxCell id="TFq2gJoqdJba1FpBUaJx-0" value="redirect to the success callback link" style="whiteSpace=wrap;html=1;" parent="k8bE74Q5Vmpq4IxRuI57-1" vertex="1"><mxGeometry x="520" y="930" width="120" height="60" as="geometry"/></mxCell><mxCell id="Mk-Ze5R7_nHXyjk9jKOV-2" style="edgeStyle=orthogonalEdgeStyle;rounded=0;orthogonalLoop=1;jettySize=auto;html=1;exitX=1;exitY=0.5;exitDx=0;exitDy=0;entryX=0.5;entryY=0;entryDx=0;entryDy=0;" parent="k8bE74Q5Vmpq4IxRuI57-1" source="Mk-Ze5R7_nHXyjk9jKOV-0" target="LxQQXr0ZSpcnUXzLKgWr-2" edge="1"><mxGeometry relative="1" as="geometry"/></mxCell><mxCell id="Mk-Ze5R7_nHXyjk9jKOV-5" style="edgeStyle=orthogonalEdgeStyle;rounded=0;orthogonalLoop=1;jettySize=auto;html=1;exitX=0;exitY=0.5;exitDx=0;exitDy=0;" parent="k8bE74Q5Vmpq4IxRuI57-1" source="Mk-Ze5R7_nHXyjk9jKOV-0" target="Mk-Ze5R7_nHXyjk9jKOV-4" edge="1"><mxGeometry relative="1" as="geometry"/></mxCell><mxCell id="Mk-Ze5R7_nHXyjk9jKOV-0" value="if success" style="rhombus;whiteSpace=wrap;html=1;" parent="k8bE74Q5Vmpq4IxRuI57-1" vertex="1"><mxGeometry x="370" y="700" width="80" height="80" as="geometry"/></mxCell><mxCell id="Mk-Ze5R7_nHXyjk9jKOV-6" style="edgeStyle=orthogonalEdgeStyle;rounded=0;orthogonalLoop=1;jettySize=auto;html=1;entryX=0.5;entryY=0;entryDx=0;entryDy=0;" parent="k8bE74Q5Vmpq4IxRuI57-1" source="Mk-Ze5R7_nHXyjk9jKOV-4" target="Mk-Ze5R7_nHXyjk9jKOV-7" edge="1"><mxGeometry relative="1" as="geometry"><mxPoint x="170" y="930" as="targetPoint"/></mxGeometry></mxCell><mxCell id="Mk-Ze5R7_nHXyjk9jKOV-4" value="no" style="text;html=1;align=center;verticalAlign=middle;resizable=0;points=[];autosize=1;strokeColor=none;fillColor=none;" parent="k8bE74Q5Vmpq4IxRuI57-1" vertex="1"><mxGeometry x="295" y="730" width="30" height="20" as="geometry"/></mxCell><mxCell id="Mk-Ze5R7_nHXyjk9jKOV-7" value="&lt;span&gt;redirect to the fail callback link&lt;/span&gt;" style="whiteSpace=wrap;html=1;" parent="k8bE74Q5Vmpq4IxRuI57-1" vertex="1"><mxGeometry x="110" y="930" width="120" height="60" as="geometry"/></mxCell></root></mxGraphModel></diagram><diagram name="transfer-checkout" id="A1aDBQUV5oECxKytpTME"><mxGraphModel dx="2167" dy="1050" grid="1" gridSize="10" guides="1" tooltips="1" connect="1" arrows="1" fold="1" page="1" pageScale="1" pageWidth="850" pageHeight="1100" math="0" shadow="0"><root><mxCell id="q5xbeKOn2-crCkHZb8qf-0"/><mxCell id="q5xbeKOn2-crCkHZb8qf-1" parent="q5xbeKOn2-crCkHZb8qf-0"/><mxCell id="q5xbeKOn2-crCkHZb8qf-2" value="" style="image;html=1;image=img/lib/clip_art/people/Suit_Man_Green_128x128.png" parent="q5xbeKOn2-crCkHZb8qf-1" vertex="1"><mxGeometry x="370" y="40" width="80" height="80" as="geometry"/></mxCell><mxCell id="q5xbeKOn2-crCkHZb8qf-3" value="" style="edgeStyle=orthogonalEdgeStyle;rounded=0;orthogonalLoop=1;jettySize=auto;html=1;" parent="q5xbeKOn2-crCkHZb8qf-1" source="q5xbeKOn2-crCkHZb8qf-4" target="q5xbeKOn2-crCkHZb8qf-7" edge="1"><mxGeometry relative="1" as="geometry"/></mxCell><mxCell id="q5xbeKOn2-crCkHZb8qf-4" value="checkout page" style="text;html=1;align=center;verticalAlign=middle;resizable=0;points=[];autosize=1;strokeColor=none;fillColor=none;" parent="q5xbeKOn2-crCkHZb8qf-1" vertex="1"><mxGeometry x="365" y="110" width="90" height="20" as="geometry"/></mxCell><mxCell id="q5xbeKOn2-crCkHZb8qf-5" value="" style="edgeStyle=orthogonalEdgeStyle;rounded=0;orthogonalLoop=1;jettySize=auto;html=1;" parent="q5xbeKOn2-crCkHZb8qf-1" source="q5xbeKOn2-crCkHZb8qf-7" target="q5xbeKOn2-crCkHZb8qf-9" edge="1"><mxGeometry relative="1" as="geometry"/></mxCell><mxCell id="q5xbeKOn2-crCkHZb8qf-7" value="select charge type&amp;nbsp;" style="rhombus;whiteSpace=wrap;html=1;fontFamily=Helvetica;fontSize=12;fontColor=#f0f0f0;align=center;strokeColor=#f0f0f0;fillColor=#2a2a2a;" parent="q5xbeKOn2-crCkHZb8qf-1" vertex="1"><mxGeometry x="350" y="170" width="120" height="120" as="geometry"/></mxCell><mxCell id="G_TLBtNEtkWrznXKo9_N-0" style="edgeStyle=orthogonalEdgeStyle;rounded=0;orthogonalLoop=1;jettySize=auto;html=1;entryX=0.5;entryY=0;entryDx=0;entryDy=0;" parent="q5xbeKOn2-crCkHZb8qf-1" source="q5xbeKOn2-crCkHZb8qf-9" target="q5xbeKOn2-crCkHZb8qf-13" edge="1"><mxGeometry relative="1" as="geometry"/></mxCell><mxCell id="q5xbeKOn2-crCkHZb8qf-9" value="transfer" style="whiteSpace=wrap;html=1;" parent="q5xbeKOn2-crCkHZb8qf-1" vertex="1"><mxGeometry x="350" y="340" width="120" height="60" as="geometry"/></mxCell><mxCell id="G_TLBtNEtkWrznXKo9_N-2" value="" style="edgeStyle=orthogonalEdgeStyle;rounded=0;orthogonalLoop=1;jettySize=auto;html=1;" parent="q5xbeKOn2-crCkHZb8qf-1" source="q5xbeKOn2-crCkHZb8qf-13" target="G_TLBtNEtkWrznXKo9_N-1" edge="1"><mxGeometry relative="1" as="geometry"/></mxCell><mxCell id="q5xbeKOn2-crCkHZb8qf-13" value="return one of the available numbers&amp;nbsp;&lt;br&gt;to use" style="whiteSpace=wrap;html=1;" parent="q5xbeKOn2-crCkHZb8qf-1" vertex="1"><mxGeometry x="350" y="460" width="120" height="60" as="geometry"/></mxCell><mxCell id="G_TLBtNEtkWrznXKo9_N-6" value="" style="edgeStyle=orthogonalEdgeStyle;rounded=0;orthogonalLoop=1;jettySize=auto;html=1;" parent="q5xbeKOn2-crCkHZb8qf-1" source="q5xbeKOn2-crCkHZb8qf-15" target="G_TLBtNEtkWrznXKo9_N-5" edge="1"><mxGeometry relative="1" as="geometry"/></mxCell><mxCell id="G_TLBtNEtkWrznXKo9_N-14" value="" style="edgeStyle=orthogonalEdgeStyle;rounded=0;orthogonalLoop=1;jettySize=auto;html=1;" parent="q5xbeKOn2-crCkHZb8qf-1" source="q5xbeKOn2-crCkHZb8qf-15" target="G_TLBtNEtkWrznXKo9_N-13" edge="1"><mxGeometry relative="1" as="geometry"/></mxCell><mxCell id="q5xbeKOn2-crCkHZb8qf-15" value="log the transaction&lt;br&gt;record all the details&lt;br&gt;current balance , number , value...etc" style="whiteSpace=wrap;html=1;" parent="q5xbeKOn2-crCkHZb8qf-1" vertex="1"><mxGeometry x="275" y="670" width="270" height="60" as="geometry"/></mxCell><mxCell id="G_TLBtNEtkWrznXKo9_N-22" style="edgeStyle=orthogonalEdgeStyle;rounded=0;orthogonalLoop=1;jettySize=auto;html=1;entryX=1;entryY=0.5;entryDx=0;entryDy=0;" parent="q5xbeKOn2-crCkHZb8qf-1" source="q5xbeKOn2-crCkHZb8qf-17" target="q5xbeKOn2-crCkHZb8qf-15" edge="1"><mxGeometry relative="1" as="geometry"><Array as="points"><mxPoint x="640" y="790"/><mxPoint x="565" y="790"/><mxPoint x="565" y="700"/></Array></mxGeometry></mxCell><mxCell id="G_TLBtNEtkWrznXKo9_N-25" value="" style="edgeStyle=orthogonalEdgeStyle;rounded=0;orthogonalLoop=1;jettySize=auto;html=1;" parent="q5xbeKOn2-crCkHZb8qf-1" source="q5xbeKOn2-crCkHZb8qf-17" target="G_TLBtNEtkWrznXKo9_N-24" edge="1"><mxGeometry relative="1" as="geometry"/></mxCell><mxCell id="q5xbeKOn2-crCkHZb8qf-17" value="update user balance&lt;br&gt;and change transfer status to succes" style="whiteSpace=wrap;html=1;" parent="q5xbeKOn2-crCkHZb8qf-1" vertex="1"><mxGeometry x="570" y="890" width="120" height="60" as="geometry"/></mxCell><mxCell id="G_TLBtNEtkWrznXKo9_N-3" style="edgeStyle=orthogonalEdgeStyle;rounded=0;orthogonalLoop=1;jettySize=auto;html=1;exitX=0.5;exitY=1;exitDx=0;exitDy=0;" parent="q5xbeKOn2-crCkHZb8qf-1" source="G_TLBtNEtkWrznXKo9_N-1" target="q5xbeKOn2-crCkHZb8qf-15" edge="1"><mxGeometry relative="1" as="geometry"/></mxCell><mxCell id="G_TLBtNEtkWrznXKo9_N-1" value="open session and change the number status&lt;br&gt;" style="whiteSpace=wrap;html=1;" parent="q5xbeKOn2-crCkHZb8qf-1" vertex="1"><mxGeometry x="350" y="560" width="120" height="60" as="geometry"/></mxCell><mxCell id="G_TLBtNEtkWrznXKo9_N-9" value="" style="edgeStyle=orthogonalEdgeStyle;rounded=0;orthogonalLoop=1;jettySize=auto;html=1;" parent="q5xbeKOn2-crCkHZb8qf-1" source="G_TLBtNEtkWrznXKo9_N-5" target="G_TLBtNEtkWrznXKo9_N-8" edge="1"><mxGeometry relative="1" as="geometry"/></mxCell><mxCell id="G_TLBtNEtkWrznXKo9_N-5" value="queue check the balance using the api&amp;nbsp;" style="whiteSpace=wrap;html=1;" parent="q5xbeKOn2-crCkHZb8qf-1" vertex="1"><mxGeometry x="350" y="770" width="120" height="60" as="geometry"/></mxCell><mxCell id="G_TLBtNEtkWrznXKo9_N-21" style="edgeStyle=orthogonalEdgeStyle;rounded=0;orthogonalLoop=1;jettySize=auto;html=1;exitX=1;exitY=0.5;exitDx=0;exitDy=0;entryX=0;entryY=0.5;entryDx=0;entryDy=0;" parent="q5xbeKOn2-crCkHZb8qf-1" source="G_TLBtNEtkWrznXKo9_N-8" target="q5xbeKOn2-crCkHZb8qf-17" edge="1"><mxGeometry relative="1" as="geometry"/></mxCell><mxCell id="G_TLBtNEtkWrznXKo9_N-33" style="edgeStyle=orthogonalEdgeStyle;rounded=0;orthogonalLoop=1;jettySize=auto;html=1;exitX=0;exitY=0.5;exitDx=0;exitDy=0;" parent="q5xbeKOn2-crCkHZb8qf-1" source="G_TLBtNEtkWrznXKo9_N-8" target="G_TLBtNEtkWrznXKo9_N-34" edge="1"><mxGeometry relative="1" as="geometry"><mxPoint x="300" y="920" as="targetPoint"/></mxGeometry></mxCell><mxCell id="G_TLBtNEtkWrznXKo9_N-8" value="if done with the time&amp;nbsp;" style="rhombus;whiteSpace=wrap;html=1;" parent="q5xbeKOn2-crCkHZb8qf-1" vertex="1"><mxGeometry x="350" y="880" width="120" height="80" as="geometry"/></mxCell><mxCell id="G_TLBtNEtkWrznXKo9_N-16" value="" style="edgeStyle=orthogonalEdgeStyle;rounded=0;orthogonalLoop=1;jettySize=auto;html=1;" parent="q5xbeKOn2-crCkHZb8qf-1" source="G_TLBtNEtkWrznXKo9_N-13" target="G_TLBtNEtkWrznXKo9_N-15" edge="1"><mxGeometry relative="1" as="geometry"/></mxCell><mxCell id="G_TLBtNEtkWrznXKo9_N-13" value="check last transaction in the number and compare with the current balance" style="shape=process;whiteSpace=wrap;html=1;backgroundOutline=1;" parent="q5xbeKOn2-crCkHZb8qf-1" vertex="1"><mxGeometry x="120" y="430" width="120" height="100" as="geometry"/></mxCell><mxCell id="G_TLBtNEtkWrznXKo9_N-19" style="edgeStyle=orthogonalEdgeStyle;rounded=0;orthogonalLoop=1;jettySize=auto;html=1;exitX=0.5;exitY=1;exitDx=0;exitDy=0;" parent="q5xbeKOn2-crCkHZb8qf-1" source="G_TLBtNEtkWrznXKo9_N-15" target="G_TLBtNEtkWrznXKo9_N-18" edge="1"><mxGeometry relative="1" as="geometry"/></mxCell><mxCell id="G_TLBtNEtkWrznXKo9_N-42" style="edgeStyle=orthogonalEdgeStyle;rounded=0;orthogonalLoop=1;jettySize=auto;html=1;entryX=0.476;entryY=-0.014;entryDx=0;entryDy=0;entryPerimeter=0;" parent="q5xbeKOn2-crCkHZb8qf-1" source="G_TLBtNEtkWrznXKo9_N-15" target="G_TLBtNEtkWrznXKo9_N-43" edge="1"><mxGeometry relative="1" as="geometry"><mxPoint x="-420" y="520" as="targetPoint"/><Array as="points"><mxPoint x="-411" y="480"/></Array></mxGeometry></mxCell><mxCell id="G_TLBtNEtkWrznXKo9_N-15" value="if the last transaction status was timeout&amp;nbsp;&lt;br&gt;and the current balance equals to&amp;nbsp;&lt;br&gt;transaction value + old balance" style="rhombus;whiteSpace=wrap;html=1;" parent="q5xbeKOn2-crCkHZb8qf-1" vertex="1"><mxGeometry x="-220" y="395" width="240" height="170" as="geometry"/></mxCell><mxCell id="G_TLBtNEtkWrznXKo9_N-20" style="edgeStyle=orthogonalEdgeStyle;rounded=0;orthogonalLoop=1;jettySize=auto;html=1;entryX=0;entryY=0.75;entryDx=0;entryDy=0;" parent="q5xbeKOn2-crCkHZb8qf-1" source="G_TLBtNEtkWrznXKo9_N-18" target="q5xbeKOn2-crCkHZb8qf-15" edge="1"><mxGeometry relative="1" as="geometry"/></mxCell><mxCell id="G_TLBtNEtkWrznXKo9_N-18" value="change the transactoin from timeout to success&lt;br&gt;and update user balance&lt;br&gt;" style="whiteSpace=wrap;html=1;" parent="q5xbeKOn2-crCkHZb8qf-1" vertex="1"><mxGeometry x="-160" y="640" width="120" height="80" as="geometry"/></mxCell><mxCell id="G_TLBtNEtkWrznXKo9_N-24" value="redirect to the succes page" style="whiteSpace=wrap;html=1;" parent="q5xbeKOn2-crCkHZb8qf-1" vertex="1"><mxGeometry x="570" y="1030" width="120" height="60" as="geometry"/></mxCell><mxCell id="G_TLBtNEtkWrznXKo9_N-38" value="" style="edgeStyle=orthogonalEdgeStyle;rounded=0;orthogonalLoop=1;jettySize=auto;html=1;" parent="q5xbeKOn2-crCkHZb8qf-1" source="G_TLBtNEtkWrznXKo9_N-34" target="G_TLBtNEtkWrznXKo9_N-37" edge="1"><mxGeometry relative="1" as="geometry"/></mxCell><mxCell id="G_TLBtNEtkWrznXKo9_N-34" value="fails cuz of time out&amp;nbsp;" style="text;html=1;align=center;verticalAlign=middle;resizable=0;points=[];autosize=1;strokeColor=none;fillColor=none;" parent="q5xbeKOn2-crCkHZb8qf-1" vertex="1"><mxGeometry x="160" y="910" width="120" height="20" as="geometry"/></mxCell><mxCell id="G_TLBtNEtkWrznXKo9_N-39" style="edgeStyle=orthogonalEdgeStyle;rounded=0;orthogonalLoop=1;jettySize=auto;html=1;exitX=0;exitY=0.25;exitDx=0;exitDy=0;entryX=0.037;entryY=1.067;entryDx=0;entryDy=0;entryPerimeter=0;" parent="q5xbeKOn2-crCkHZb8qf-1" source="G_TLBtNEtkWrznXKo9_N-37" target="q5xbeKOn2-crCkHZb8qf-15" edge="1"><mxGeometry relative="1" as="geometry"/></mxCell><mxCell id="G_TLBtNEtkWrznXKo9_N-40" style="edgeStyle=orthogonalEdgeStyle;rounded=0;orthogonalLoop=1;jettySize=auto;html=1;exitX=0;exitY=0.75;exitDx=0;exitDy=0;entryX=1;entryY=0.5;entryDx=0;entryDy=0;" parent="q5xbeKOn2-crCkHZb8qf-1" source="G_TLBtNEtkWrznXKo9_N-37" target="G_TLBtNEtkWrznXKo9_N-41" edge="1"><mxGeometry relative="1" as="geometry"><mxPoint x="60" y="1035" as="targetPoint"/><Array as="points"><mxPoint x="20" y="1035"/></Array></mxGeometry></mxCell><mxCell id="G_TLBtNEtkWrznXKo9_N-37" value="change transfrere to timeout&amp;nbsp;" style="whiteSpace=wrap;html=1;" parent="q5xbeKOn2-crCkHZb8qf-1" vertex="1"><mxGeometry x="160" y="990" width="120" height="60" as="geometry"/></mxCell><mxCell id="G_TLBtNEtkWrznXKo9_N-41" value="redirect to the fails page" style="whiteSpace=wrap;html=1;" parent="q5xbeKOn2-crCkHZb8qf-1" vertex="1"><mxGeometry x="-60" y="1000" width="120" height="60" as="geometry"/></mxCell><mxCell id="G_TLBtNEtkWrznXKo9_N-46" value="" style="edgeStyle=orthogonalEdgeStyle;rounded=0;orthogonalLoop=1;jettySize=auto;html=1;" parent="q5xbeKOn2-crCkHZb8qf-1" source="G_TLBtNEtkWrznXKo9_N-43" target="G_TLBtNEtkWrznXKo9_N-45" edge="1"><mxGeometry relative="1" as="geometry"/></mxCell><mxCell id="G_TLBtNEtkWrznXKo9_N-43" value="no" style="text;html=1;align=center;verticalAlign=middle;resizable=0;points=[];autosize=1;strokeColor=none;fillColor=none;" parent="q5xbeKOn2-crCkHZb8qf-1" vertex="1"><mxGeometry x="-425" y="530" width="30" height="20" as="geometry"/></mxCell><mxCell id="G_TLBtNEtkWrznXKo9_N-47" style="edgeStyle=orthogonalEdgeStyle;rounded=0;orthogonalLoop=1;jettySize=auto;html=1;entryX=0;entryY=1;entryDx=0;entryDy=0;" parent="q5xbeKOn2-crCkHZb8qf-1" source="G_TLBtNEtkWrznXKo9_N-45" target="q5xbeKOn2-crCkHZb8qf-15" edge="1"><mxGeometry relative="1" as="geometry"><Array as="points"><mxPoint x="-410" y="810"/><mxPoint x="275" y="810"/></Array></mxGeometry></mxCell><mxCell id="G_TLBtNEtkWrznXKo9_N-45" value="change the stauts from timeout to decline" style="whiteSpace=wrap;html=1;" parent="q5xbeKOn2-crCkHZb8qf-1" vertex="1"><mxGeometry x="-470" y="600" width="120" height="60" as="geometry"/></mxCell></root></mxGraphModel></diagram></mxfile>